<?xml version="1.0" encoding="utf-8"?>
<!-- Generator: Adobe Illustrator 15.0.0, SVG Export Plug-In . SVG Version: 6.00 Build 0)  -->
<!DOCTYPE svg PUBLIC "-//W3C//DTD SVG 1.1//EN" "http://www.w3.org/Graphics/SVG/1.1/DTD/svg11.dtd">
<svg version="1.1" id="Layer_1" xmlns="http://www.w3.org/2000/svg" xmlns:xlink="http://www.w3.org/1999/xlink" x="0px" y="0px"
	 width="512px" height="512px" viewBox="0 0 512 512" enable-background="new 0 0 512 512" xml:space="preserve">
<path fill-rule="evenodd" clip-rule="evenodd" fill="#4594A5" d="M10.485,313.897c-26.043,55.684-1.882,121.993,53.801,147.948
	c55.768,26.043,122.076,1.887,148.032-53.881l115.823-248.436c26.043-55.684,1.882-121.993-53.802-147.948
	c-55.768-26.043-122.076-1.887-148.031,53.881L10.485,313.897z M157.404,79.943c17.991-38.638,63.824-55.341,102.458-37.354
	c38.55,17.991,55.257,63.907,37.266,102.458l-57.909,124.218L99.407,204.161L157.404,79.943z M290.104,385.602
	c-6.768,53.63,26.298,105.545,79.841,120.964C423.404,521.9,479,495.343,501.701,446.255L290.104,385.602z M511.125,413.36
	c6.768-53.63-26.298-105.545-79.84-120.963c-53.458-15.335-109.055,11.223-131.756,60.31L511.125,413.36z"/>
</svg>
